<?xml version="1.0" encoding="utf-8"?>
<!-- Svg Vector Icons : http://www.sfont.cn -->
<!DOCTYPE svg PUBLIC "-//W3C//DTD SVG 1.1//EN" "http://www.w3.org/Graphics/SVG/1.1/DTD/svg11.dtd">
<svg version="1.1" xmlns="http://www.w3.org/2000/svg" xmlns:xlink="http://www.w3.org/1999/xlink" x="0px" y="0px" viewBox="0 0 1000 1000" enable-background="new 0 0 1000 1000" xml:space="preserve">
<metadata> Svg Vector Icons : http://www.sfont.cn </metadata>
<g><path d="M10,678.3c0.9-4.6,1.5-9.3,2.7-13.8c9.5-38.2,41.7-62.4,83.2-62.4c152.1,0,304.3,0,456.4,0c2.9,0,5.7,0,9.3,0c0-2.9,0-5.2,0-7.6c0-68,0-136.1,0-204.1c0-22.1,9.4-38.5,29.2-48.6c29.5-15,67.9,5.6,71.6,38.5c0.6,5.2,0.9,10.5,0.9,15.8c0.1,66.2,0,132.4,0,198.7c0,2.2,0,4.3,0,7.3c2.7,0,4.9,0,7.2,0c77.9,0,155.8,0,233.7,0c19.9,0,38.3,4.8,54.1,17.3c19.3,15.3,30.7,35.4,31.1,60.1c0.7,43.8,0.4,87.6,0.4,131.3c0,34.1,0.4,68.2-0.3,102.3c-0.8,38.7-33.7,72.7-72.2,76.1c-2.2,0.2-4.3,0.7-6.4,1c-274,0-548,0-822.1,0c-1.4-0.3-2.8-0.8-4.2-0.9c-36.6-3.4-65.5-29.5-72.7-65.7c-0.7-3.3-1.2-6.7-1.9-10.1C10,835.2,10,756.7,10,678.3z M163.2,847c28,0.1,51.4-23.2,51.3-51.1c-0.1-27.8-23-50.8-50.9-51c-28-0.3-51.1,22.6-51.5,50.8C111.7,823.4,135.1,847,163.2,847z M346.3,847c28,0.5,50.9-21.6,51.9-50.4c1-27.2-22.1-51-50.1-51.7c-28.1-0.7-52.1,22.2-52.1,50.7C296,824.2,317.9,846.3,346.3,847z"/><path d="M606.5,9.8c116.5,2.2,210,42.6,284.9,123.7c49.6,53.6,80.3,117.1,92.9,189.2c3.9,22.5,6.3,45.2,5.3,68c-1.2,26.1-21.5,45.8-48.1,47.7c-23.8,1.7-47.5-16.2-51.9-40.4c-2-10.9-1.5-22.2-2.4-33.2c-4.2-52.2-21.9-99.5-53.2-141.3c-42.5-56.8-98.8-92.8-168.5-106.3c-137.3-26.6-270.2,51.4-314.8,184.1c-8.4,25-12.9,50.8-13.6,77.2c-0.3,12.1-0.8,24.1-7.4,34.8c-10.9,17.5-26.8,26.3-47.2,24.9c-21.8-1.6-36.9-13.4-44.5-34.1c-5.1-13.8-2.9-28.2-2-42.3c3-46.3,14.2-90.6,33.9-132.6c32.9-70.2,82.5-125.3,148.8-165.4C461,38,507,21.5,556,14.4C574.8,11.7,593.8,10.9,606.5,9.8z"/><path d="M608.8,172.8c86.6,3.8,150.2,40.1,191.6,112.5c17.8,31,26,65.2,26.1,101c0.1,40.9-41.8,65.1-77.1,44.5c-16.8-9.8-24.1-25.6-24.6-44.8c-0.6-25.2-8.7-47.7-24-67.8c-40.8-53.6-124.4-57.5-170-7.9c-19.4,21.1-29.9,45.8-30.7,74.6c-0.5,19.7-7.6,36.2-25.2,46.2c-35.4,20.1-76.8-3.9-76.5-44.7c0.3-53.1,18.2-99.9,53.2-139.9c31-35.5,69.8-58.1,115.7-68C582.1,175.2,597.3,174.3,608.8,172.8z"/></g>
</svg>