<?xml version="1.0" encoding="utf-8"?>
<!-- Svg Vector Icons : http://www.sfont.cn -->
<!DOCTYPE svg PUBLIC "-//W3C//DTD SVG 1.1//EN" "http://www.w3.org/Graphics/SVG/1.1/DTD/svg11.dtd">
<svg version="1.1" xmlns="http://www.w3.org/2000/svg" xmlns:xlink="http://www.w3.org/1999/xlink" x="0px" y="0px" viewBox="0 0 1000 1000" enable-background="new 0 0 1000 1000" xml:space="preserve">
<metadata> Svg Vector Icons : http://www.sfont.cn </metadata>
<g><path d="M500,853.6c0,0-320.6-352.5-320.6-527.3S322.9,10,500,10c177,0,320.6,141.6,320.6,316.4S500,853.6,500,853.6z M500,115.5c-118,0-213.7,94.4-213.7,210.9S382,537.3,500,537.3c118,0,213.7-94.4,213.7-210.9S618,115.5,500,115.5z M500,431.8c-59,0-106.8-47.2-106.8-105.5S441,220.9,500,220.9c59,0,106.8,47.2,106.8,105.5S559,431.8,500,431.8z"/><path d="M667.6,727.4L621.8,789c122.3,14.6,184.4,48.3,187.5,63c-4,19.5-105.2,70.5-309.3,70.5c-204.1,0-305.3-51.1-309.3-70c3.1-15.1,65.3-49.3,188.7-63.8L328.5,728c-114.9,19.3-205.3,59.8-205.3,124.2C123.2,946.9,318.5,990,500,990c181.5,0,376.8-43.1,376.8-137.8C876.8,787.1,784.3,746.5,667.6,727.4z"/></g>
</svg>